<?xml version="1.0" encoding="UTF-8" standalone="no"?>
<!DOCTYPE svg PUBLIC "-//W3C//DTD SVG 1.1//EN" "http://www.w3.org/Graphics/SVG/1.1/DTD/svg11.dtd">
<svg width="100%" height="100%" viewBox="0 0 957 327" version="1.1" xmlns="http://www.w3.org/2000/svg" xmlns:xlink="http://www.w3.org/1999/xlink" xml:space="preserve" xmlns:serif="http://www.serif.com/" style="fill-rule:evenodd;clip-rule:evenodd;stroke-linecap:square;stroke-linejoin:round;stroke-miterlimit:1.5;">
    <g transform="matrix(1,0,0,1,-131.716,-101.716)">
        <g transform="matrix(1.125,0,0,1.125,-70,-187.5)">
            <circle cx="440" cy="400" r="20" style="fill:white;"/>
        </g>
        <g transform="matrix(0.75,0,0,0.75,97.5,35)">
            <path d="M340,366.667L340,300C340,244.808 384.808,200 440,200C495.192,200 540,244.808 540,300L540,366.667" style="fill:none;stroke:white;stroke-width:53.33px;"/>
        </g>
    </g>
    <g transform="matrix(-1.32,1.61653e-16,-1.61653e-16,-1.32,1192.28,738.284)">
        <path d="M300,333.333L300,450C300,477.596 277.596,500 250,500C222.404,500 200,477.596 200,450C200,422.404 222.404,400 250,400C277.596,400 260,400 260,400" style="fill:none;stroke:white;stroke-width:30.3px;"/>
    </g>
    <g transform="matrix(1.32,-3.23307e-16,3.23307e-16,1.32,-235.716,-411.716)">
        <path d="M300,333.333L300,450C300,477.596 277.596,500 250,500C222.404,500 200,477.596 200,450C200,422.404 222.404,400 250,400C277.596,400 260,400 260,400" style="fill:none;stroke:rgb(98,157,235);stroke-width:30.3px;"/>
    </g>
    <g transform="matrix(1,0,0,1,-131.716,-101.716)">
        <g transform="matrix(0.75,0,0,0.75,310,35)">
            <path d="M340,366.667L340,300C340,244.808 384.808,200 440,200C495.192,200 540,244.808 540,300L540,366.667" style="fill:none;stroke:white;stroke-width:53.33px;"/>
        </g>
        <g transform="matrix(0.75,0,0,0.75,460,35)">
            <path d="M340,366.667L340,300C340,244.808 384.808,200 440,200C495.192,200 540,244.808 540,300L540,366.667" style="fill:none;stroke:white;stroke-width:53.33px;"/>
        </g>
    </g>
    <g transform="matrix(1.125,0,0,1.125,-272.5,-422.5)">
        <path d="M440,380C451.038,380 460,388.962 460,400C460,411.038 451.038,420 440,420L420,420L420,400C420,388.962 428.962,380 440,380Z" style="fill:rgb(98,157,235);"/>
    </g>
</svg>
